<svg width="757" height="1953" viewBox="0 0 757 1953" fill="none" xmlns="http://www.w3.org/2000/svg">
<g clip-path="url(#clip0_38_54)">
<path d="M867.573 637.362L998.315 486.013L435.697 -0.00302376L304.955 151.346L867.573 637.362Z" fill="#50BC7F"/>
<path d="M997.09 1787.99C886.693 1895.25 738.414 1954.59 584.497 1953.11C430.581 1951.62 283.475 1889.43 175.168 1780.06C66.8614 1670.69 6.11297 1522.98 6.13331 1369.06C6.15365 1215.13 66.9411 1067.44 175.276 958.098C283.612 848.755 430.735 786.604 584.652 785.159C738.568 783.714 886.832 843.093 997.201 950.383C1107.57 1057.67 1171.12 1204.2 1174.03 1358.09C1176.94 1511.99 1118.97 1660.81 1012.74 1772.2L870.69 1636.72C941.216 1562.77 979.697 1463.97 977.765 1361.8C975.834 1259.64 933.645 1162.36 860.374 1091.14C787.103 1019.91 688.675 980.489 586.494 981.449C484.313 982.408 386.642 1023.67 314.721 1096.26C242.8 1168.85 202.445 1266.9 202.432 1369.08C202.418 1471.27 242.747 1569.33 314.649 1641.94C386.551 1714.54 484.211 1755.83 586.392 1756.82C688.573 1757.8 787.011 1718.41 860.301 1647.2L997.09 1787.99Z" fill="#46C2CA"/>
</g>
<defs>
<clipPath id="clip0_38_54">
<rect width="757" height="1953" fill="white"/>
</clipPath>
</defs>
</svg>
